# xmcd
#
# Track frame offsets: 
#        150
#        24460
#        47330
#        66067
#        77425
#        94455
#        118388
#        141998
#        166872
#        181954
#        200532
#        220435
#
# Disc length: 3132 seconds
#
# Revision: 1
# Processed by: cddbd v1.5.2PL0 Copyright (c) Steve Scherf et al.
# Submitted via: ExactAudioCopy v1.0b3
#
DISCID=a90c3a0c
DTITLE=昊恩家家 - Blue In Love
DYEAR=2006
DGENRE=Pop
TTITLE0=星の流れに (流星)
TTITLE1=不自由
TTITLE2=Love, Love, Love
TTITLE3=Tan-Kan-Ka-Lan (蜥蜴)
TTITLE4=我好想你
TTITLE5=顏色
TTITLE6=迷路
TTITLE7=回家
TTITLE8=Da La La La
TTITLE9=星星數不清
TTITLE10=不愛你
TTITLE11=記得說再見
EXTD=
EXTT0=
EXTT1=
EXTT2=
EXTT3=
EXTT4=
EXTT5=
EXTT6=
EXTT7=
EXTT8=
EXTT9=
EXTT10=
EXTT11=
PLAYORDER=
